<svg xmlns="http://www.w3.org/2000/svg" version="1.1" xmlns:xlink="http://www.w3.org/1999/xlink" xmlns:svgjs="http://svgjs.com/svgjs" width="1440" height="560" preserveAspectRatio="none" viewBox="0 0 1440 560"><g mask="url(&quot;#SvgjsMask1000&quot;)" fill="none"><rect width="1440" height="560" x="0" y="0" fill="#0e2a47"></rect><path d="M0,681.042C128.676,692.887,259.522,641.465,360.13,560.373C455.915,483.169,493.847,360.614,539.352,246.314C582.706,137.417,652.348,23.311,618.639,-88.947C585.378,-199.715,462.535,-251.568,369.299,-320C295.313,-374.303,220.279,-424.756,131.172,-446.73C44.851,-468.017,-41.239,-445.173,-130.123,-443.159C-255.669,-440.314,-397.585,-506.408,-499.073,-432.449C-598.973,-359.648,-611.559,-212.162,-616.587,-88.652C-621.309,27.336,-578.871,136.847,-526.467,240.429C-475.784,340.61,-405.999,425.719,-319.901,497.776C-223.711,578.28,-124.905,669.545,0,681.042" fill="#0b2239"></path><path d="M1440 958.823C1511.495 941.0609999999999 1550.09 867.486 1610.692 825.601 1668.512 785.639 1758.524 782.733 1787.4569999999999 718.678 1816.3980000000001 654.607 1764.5529999999999 584.262 1750.8519999999999 515.306 1738.034 450.795 1739.818 384.83500000000004 1709.526 326.454 1673.222 256.486 1631.27 184.027 1560.718 148.87099999999998 1485.19 111.23599999999999 1392.654 99.91899999999998 1313.478 129.10700000000003 1235.825 157.733 1187.738 233.06 1143.172 302.797 1103.535 364.821 1077.258 433.666 1071.931 507.08 1066.853 577.054 1092.559 642.12 1113.695 709.019 1137.851 785.4780000000001 1140.78 877.783 1204.449 926.525 1268.6779999999999 975.696 1361.496 978.326 1440 958.823" fill="#113255"></path></g><defs><mask id="SvgjsMask1000"><rect width="1440" height="560" fill="#ffffff"></rect></mask></defs></svg>